<svg xmlns="http://www.w3.org/2000/svg" width="225" height="225" fill="none"><style>@media (prefers-color-scheme:dark){.a{fill:#fff}}</style><g clip-path="url(#clip0_10_12)"><path fill="#000" d="M156.226 9.255C142.62 3.305 127.594 0 111.796 0 66.309 0 27.212 27.358 10.083 66.496 3.613 80.695 0 96.46 0 113.046c0 24.509 7.737 47.8 22.374 67.373 12.575 16.821 29.907 29.948 49.367 37.563.884.438 1.891.82 3.003 1.136 1.445.52 2.906 1.007 4.376 1.47a109.37 109.37 0 0 0 9.766 2.557c.13.024.252.04.374.04a1.8 1.8 0 0 0 1.753-1.42 1.786 1.786 0 0 0-.187-1.234 1.718 1.718 0 0 0-.17-.374c-4.506-7.233 1.567-11.495 2.265-11.95a1.793 1.793 0 0 0 .787-1.859c-.08-.414-8.256-41.987-3.255-67.705a1.793 1.793 0 1 0-3.523-.682c-4.733 24.362 1.745 61.089 3.052 68.006-2.013 1.729-6.178 6.267-3.945 12.835-1.973-.496-3.93-1.04-5.854-1.632-1.201-.374-2.395-.78-3.58-1.194a1.566 1.566 0 0 0-.381-.146c-.106-.024-.195-.057-.292-.081-.967-.349-1.933-.722-2.89-1.096-1.421-.763-2.29-1.713-2.598-2.849-.95-3.507 3.198-8.589 4.87-10.246.43-.422.618-1.031.504-1.623-12.137-61.569 4.773-97.873 4.96-98.263.536-1.177.122-1.907-3.369-7.063-.576-.852-1.29-1.915-1.42-2.159a53.67 53.67 0 0 1-3.45-8.362A52.785 52.785 0 0 1 70.1 66.74c.276-10.879 3.182-21.367 8.175-29.534 1.396-2.29 3.888-4.66 6.689-4.433 4.035.317 6.933 5.48 9.052 9.255.219.382.422.755.625 1.112 1.12 1.957 2.793 5.561 2.809 7.444a1.796 1.796 0 0 0 2.444 1.656c.105-.04 10.748-4.059 22.949 2.728.869.48 1.957.17 2.436-.698.146-.268.219-.552.227-.836.633-1.275 3.507-5.22 4.043-5.861 2.606-2.931 6.34-5.561 9.742-6.868 2.809-1.08 5.009-.983 6.73.276 4.424 3.255 5.399 13.768 4.887 21.78-.414 6.577-1.851 16.31-6.308 25.313-1.526 3.085-3.426 6.08-5.634 8.914-.3.382-.649.852-1.047 1.38-1.656 2.216-4.749 6.349-6.649 6.925a1.777 1.777 0 0 0-1.193 2.224.894.894 0 0 0 .057.163c1.867 6.226 6.803 12.437 12.502 19.621 9.66 12.161 21.562 27.164 21.407 47.654 0 .041-.008.073-.008.106 0 .032 0 .081.008.13v.584c-.008.276-.024.568-.032.844-.098 1.892-.333 4.766-.422 5.334-.471 3.19-1.575 5.723-3.475 7.98-1.404 1.664-3.296 3.256-6.137 5.163-10.01 6.714-19.054 10.213-27.643 10.684-4.416.244-6.437-.796-6.9-1.21.081-1.079 2.176-6.015 12.161-10.797a9.17 9.17 0 0 0 4.733-5.269 9.198 9.198 0 0 0-.382-7.079c-1.891-3.961-6.356-6.056-10.602-4.984a8.841 8.841 0 0 0-1.746.633c-4.781 2.289-8.897 4.985-12.266 7.94-1.835-11.674-3.467-28.114-2.005-44.951a1.788 1.788 0 0 0-1.632-1.94c-.99-.097-1.851.641-1.94 1.632-1.6 18.428.422 36.345 2.443 48.311-5.999 6.551-8.54 14.045-6.705 21.197 1.907 7.436 9.068 15.067 23.486 15.067.771 0 1.558-.024 2.37-.065 9.644-.536 19.354-3.483 27.529-6.844a113.433 113.433 0 0 0 13.776-6.673c3.191-1.794 5.48-3.271 6.544-4.034 30.751-20.499 49.992-55.261 49.992-93.66 0-46.63-28.487-86.719-68.965-103.8Zm17.187 194.325c-.057.049-.138.105-.219.162a108.118 108.118 0 0 1-6.471 3.986 124.963 124.963 0 0 1-13.5 6.495 110.477 110.477 0 0 1-6.925 2.525 1.53 1.53 0 0 0-.317.138c-5.991 1.964-12.445 3.45-18.826 3.799-13.849.755-20.539-5.861-22.195-12.315-2.549-9.961 5.374-20.978 20.182-28.073a6.589 6.589 0 0 1 1.072-.39c.454-.113.917-.17 1.372-.17a5.687 5.687 0 0 1 5.122 3.231 5.621 5.621 0 0 1 .236 4.335 5.655 5.655 0 0 1-2.899 3.231c-11.641 5.569-14.815 12.169-14.085 15.019.666 2.581 4.904 4.107 10.57 3.799 9.247-.512 18.883-4.205 29.445-11.284 3.125-2.095 5.252-3.897 6.876-5.829 2.346-2.785 3.71-5.886 4.278-9.766.057-.366.236-2.273.357-4.133 6.747 5.229 10.254 10.416 10.432 15.458.219 5.91-4.416 9.709-4.505 9.782Z" class="a"/><path fill="#000" d="M98.031 71.695c.414-2.29-.656-4.4-2.39-4.713-1.734-.314-3.475 1.289-3.89 3.579-.413 2.29.657 4.4 2.391 4.713 1.734.314 3.476-1.289 3.89-3.579Zm27.944 4.616c.414-2.29-.656-4.4-2.39-4.713-1.734-.314-3.475 1.289-3.889 3.579-.414 2.29.656 4.4 2.39 4.713 1.734.314 3.476-1.289 3.889-3.579Zm-21.754 6.697 6.373.893c.69.098.942.958.414 1.413l-3.694 3.174a.81.81 0 0 1-1.201-.17l-2.679-4.067c-.382-.577.105-1.34.787-1.243Zm-4.261 6.406-11 1.575a.408.408 0 0 0 .057.812h.056l11-1.575a.406.406 0 0 0 .341-.463.403.403 0 0 0-.455-.35Zm.056-3.58H81.011a.402.402 0 0 0-.405.406.4.4 0 0 0 .405.405h19.005a.402.402 0 0 0 .406-.405.407.407 0 0 0-.406-.406Zm32.514 6.299-18.575-3.718a.406.406 0 0 0-.479.317c-.04.219.098.43.317.479l18.574 3.718a.406.406 0 0 0 .163-.796Zm-9.799 2.444-9.718-3.426a.404.404 0 0 0-.519.252.404.404 0 0 0 .251.52l9.718 3.425a.402.402 0 0 0 .519-.244c.065-.219-.04-.454-.251-.527Z" class="a"/></g><defs><clipPath id="clip0_10_12"><path fill="#fff" d="M0 0h225v225H0z"/></clipPath></defs></svg>