<svg width="225" height="225" viewBox="0 0 225 225" fill="none" xmlns="http://www.w3.org/2000/svg">
<path d="M96.0059 52.9639C96.453 50.4892 95.2964 48.2086 93.4225 47.87C91.5486 47.5315 89.667 49.2631 89.2199 51.7378C88.7728 54.2125 89.9295 56.4931 91.8034 56.8316C93.6772 57.1702 95.5588 55.4385 96.0059 52.9639Z" fill="white"/>
<path d="M126.213 57.9535C126.66 55.4788 125.503 53.1982 123.629 52.8597C121.755 52.5211 119.874 54.2527 119.427 56.7274C118.979 59.2021 120.136 61.4827 122.01 61.8213C123.884 62.1598 125.765 60.4282 126.213 57.9535Z" fill="white"/>
<path d="M102.709 65.1741L109.596 66.1391C110.342 66.2444 110.614 67.1744 110.044 67.6656L106.052 71.0959C105.657 71.438 105.043 71.3503 104.754 70.9117L101.858 66.5164C101.446 65.8935 101.964 65.0688 102.709 65.1741Z" fill="white"/>
<path d="M172.016 163.511C171.815 140.579 158.699 124.059 148.04 110.636C142.574 103.749 137.784 97.7222 135.67 92.0987C138.091 90.5283 140.53 87.4227 143.013 84.1065C143.416 83.5625 143.776 83.08 144.092 82.6852C146.645 79.4217 148.838 75.9475 150.601 72.3769C155.699 62.0773 157.33 51.0145 157.804 43.5487C158.111 38.6533 158.541 22.2301 150.944 16.6505C147.978 14.4748 144.294 14.2028 139.986 15.8609C135.705 17.5015 131.204 20.6685 127.949 24.3269C127.906 24.3708 125.133 27.7484 123.58 30.5119C113.062 25.3797 103.806 26.6342 99.6652 27.6431C98.858 24.441 96.9455 20.9756 96.4805 20.1685C96.27 19.7912 96.0419 19.4052 95.8138 18.9929C93.0941 14.159 89.3744 7.53529 82.9525 7.02646C78.1887 6.65799 74.2233 10.2023 72.1178 13.6589C66.3714 23.0548 63.0289 35.0739 62.7131 47.4965C62.5376 54.3307 63.4851 61.0684 65.5292 67.5166C66.5732 70.8065 67.9067 74.0525 69.5122 77.1582C69.7315 77.5793 70.2667 78.3864 71.2843 79.8866C72.1617 81.1763 73.6618 83.4046 74.2672 84.4837C71.6616 90.423 56.6334 128.516 68.7753 191.304C66.7399 193.515 61.6954 199.726 63.2219 205.376C64.1431 208.789 67.1786 211.175 72.1967 212.456C72.767 212.623 76.0306 213.509 79.5924 213.509C81.5751 213.509 83.6456 213.228 85.4002 212.403C85.4265 212.447 85.4528 212.491 85.4791 212.535C85.8037 213.14 87.339 215.597 91.0325 216.729C92.2607 217.106 93.5767 217.29 94.9891 217.29C98.8493 217.29 103.385 215.86 108.526 213.053C112.64 215.974 118.343 217.922 125.905 217.922C126.739 217.922 127.59 217.895 128.467 217.852C153.26 216.483 178.456 200.376 180.728 198.454C181.307 197.981 187.246 192.954 186.992 184.847C186.773 177.61 181.728 170.433 172.016 163.511ZM92.3133 213.044C89.813 212.325 88.9269 210.728 88.9006 210.693C88.8743 210.64 88.8392 210.579 88.8041 210.526C83.9351 202.709 90.4973 198.103 91.2518 197.603C91.9273 197.165 92.2695 196.358 92.1028 195.568C92.0151 195.147 83.1894 153.071 88.5848 125.296C88.7866 124.243 88.1023 123.225 87.0495 123.024C85.9968 122.822 84.9878 123.506 84.7773 124.559C82.4437 136.569 82.3296 152.317 84.4351 171.354C85.6985 182.777 87.4355 192.006 88.0584 195.191C85.8915 197.051 81.4611 201.893 83.7508 208.886C80.7417 210.324 75.241 209.28 73.2056 208.701C69.5911 207.771 67.4856 206.315 66.9592 204.35C65.9328 200.56 70.4158 195.068 72.2231 193.278C72.688 192.822 72.8898 192.164 72.767 191.524C59.6776 125.103 77.3553 86.9577 78.1273 85.3347C78.7063 84.0626 78.2589 83.273 74.4865 77.7021C73.8636 76.781 73.0916 75.6317 72.9512 75.3685C71.451 72.4559 70.1965 69.4204 69.2227 66.3323C67.3102 60.2876 66.4241 53.9798 66.5908 47.5755C66.8891 35.8196 70.0298 24.4848 75.4252 15.6592C76.9342 13.1852 79.6187 10.6322 82.6542 10.8691C87.0144 11.2112 90.1464 16.7909 92.4362 20.8703C92.673 21.2827 92.8924 21.6862 93.1117 22.0723C94.3224 24.1953 96.1384 28.0906 96.1472 30.1259C96.1472 30.7576 96.4718 31.3541 96.9894 31.7138C97.507 32.0735 98.1825 32.1525 98.7791 31.9244C98.8931 31.8805 110.474 27.5817 123.589 34.8721C124.528 35.3897 125.704 35.0563 126.221 34.1176C126.379 33.8281 126.458 33.5211 126.467 33.214C127.151 31.8366 130.257 27.5729 130.836 26.8799C133.652 23.7128 137.688 20.8703 141.363 19.4579C144.399 18.2911 146.776 18.3876 148.636 19.7562C153.418 23.2741 154.47 34.6353 153.918 43.2943C153.47 50.4004 151.917 60.9193 147.101 70.6486C145.452 73.9824 143.399 77.2284 141.013 80.2814C140.688 80.6937 140.311 81.2026 139.881 81.7728C138.091 84.1679 134.749 88.6333 132.696 89.2562C131.678 89.5633 131.108 90.6336 131.406 91.6513C131.424 91.7127 131.45 91.7741 131.467 91.8355C133.485 98.5644 138.819 105.276 144.978 113.031C155.418 126.173 168.279 142.386 168.112 164.529C168.112 164.573 168.104 164.608 168.104 164.643C168.104 164.678 168.104 164.731 168.112 164.775C168.112 164.968 168.112 165.161 168.112 165.362C168.112 165.371 168.112 165.389 168.112 165.398C168.104 165.713 168.086 166.038 168.069 166.363C167.963 168.407 167.709 171.477 167.612 172.091C167.104 175.539 165.91 178.276 163.858 180.715C162.34 182.514 160.296 184.233 157.225 186.295C146.408 193.55 136.635 197.331 127.353 197.84C122.58 198.103 120.387 196.972 119.896 196.533C119.984 195.366 122.247 190.032 133.038 184.865C138.012 182.487 140.126 176.495 137.749 171.521C135.705 167.24 130.88 164.976 126.291 166.134C125.651 166.301 125.01 166.529 124.405 166.819C119.29 169.266 114.878 172.144 111.246 175.302C109.263 162.459 107.447 144.412 108.973 126.822C109.07 125.761 108.28 124.822 107.21 124.726C106.131 124.638 105.201 125.419 105.113 126.489C103.438 145.728 105.675 165.441 107.842 178.601C101.288 185.698 98.5071 193.848 100.499 201.613C101.271 204.631 102.85 207.684 105.35 210.315C98.7264 213.711 94.6294 213.711 92.3133 213.044ZM178.254 195.472C175.631 197.577 151.479 212.684 128.265 213.965C113.307 214.799 106.069 207.631 104.28 200.656C101.525 189.892 110.088 177.978 126.09 170.319C126.458 170.144 126.853 170.003 127.248 169.898C127.739 169.775 128.239 169.714 128.73 169.714C131.046 169.714 133.231 171.039 134.266 173.206C134.977 174.679 135.064 176.346 134.52 177.89C133.977 179.434 132.862 180.671 131.38 181.382C118.799 187.4 115.369 194.533 116.158 197.612C116.878 200.402 121.475 202.051 127.581 201.718C137.582 201.165 147.987 197.173 159.401 189.523C162.778 187.251 165.077 185.312 166.832 183.224C169.367 180.215 170.841 176.855 171.455 172.67C171.516 172.276 171.709 170.214 171.841 168.205C179.131 173.846 182.921 179.461 183.114 184.909C183.369 191.287 178.351 195.393 178.254 195.472Z" fill="white"/>
<path d="M98.0948 72.0962L86.2073 73.7981C85.9704 73.8332 85.8037 74.0525 85.8388 74.2982C85.8739 74.5175 86.0582 74.6754 86.2687 74.6754C86.2863 74.6754 86.3126 74.6754 86.3301 74.6754L98.2176 72.9735C98.4545 72.9384 98.6212 72.719 98.5861 72.4734C98.5598 72.2365 98.3317 72.0611 98.0948 72.0962Z" fill="white"/>
<path d="M98.1562 68.236H77.6185C77.3728 68.236 77.1798 68.429 77.1798 68.6746C77.1798 68.9203 77.3728 69.1133 77.6185 69.1133H98.1562C98.4018 69.1133 98.5948 68.9203 98.5948 68.6746C98.5948 68.429 98.4018 68.236 98.1562 68.236Z" fill="white"/>
<path d="M133.292 75.035L113.219 71.017C112.974 70.9643 112.755 71.1223 112.702 71.3591C112.649 71.596 112.807 71.8241 113.044 71.8767L133.117 75.8948C133.143 75.9036 133.178 75.9036 133.204 75.9036C133.406 75.9036 133.591 75.7632 133.634 75.5527C133.687 75.3158 133.529 75.0877 133.292 75.035Z" fill="white"/>
<path d="M122.703 77.6845L112.202 73.9823C111.974 73.9033 111.719 74.0174 111.64 74.2542C111.561 74.4823 111.675 74.7368 111.912 74.8157L122.414 78.5179C122.466 78.5355 122.51 78.5443 122.563 78.5443C122.747 78.5443 122.914 78.4302 122.975 78.2547C123.045 78.0091 122.931 77.7634 122.703 77.6845Z" fill="white"/>
</svg>
